<svg width="40" height="40" viewBox="0 0 40 40" fill="none" xmlns="http://www.w3.org/2000/svg">
<rect width="40" height="40" rx="20" fill="#0A1339"/>
<path d="M19.6467 14.5601C19.7405 14.4664 19.8676 14.4138 20.0001 14.4138C20.1326 14.4138 20.2596 14.4664 20.3534 14.5601L26.1467 20.3534C26.1925 20.4025 26.2477 20.4419 26.309 20.4693C26.3704 20.4966 26.4366 20.5113 26.5037 20.5125C26.5708 20.5137 26.6375 20.5013 26.6998 20.4762C26.762 20.451 26.8186 20.4136 26.8661 20.3661C26.9136 20.3186 26.951 20.2621 26.9761 20.1998C27.0013 20.1375 27.0136 20.0709 27.0124 20.0037C27.0113 19.9366 26.9966 19.8704 26.9692 19.8091C26.9419 19.7477 26.9025 19.6925 26.8534 19.6467L21.0607 13.8534C20.9214 13.7141 20.7561 13.6036 20.5741 13.5282C20.3921 13.4529 20.197 13.4141 20.0001 13.4141C19.8031 13.4141 19.608 13.4529 19.426 13.5282C19.244 13.6036 19.0787 13.7141 18.9394 13.8534L13.1461 19.6467C13.055 19.7411 13.0047 19.8674 13.0059 19.9985C13.0071 20.1296 13.0597 20.255 13.1525 20.3477C13.2452 20.4403 13.3707 20.4928 13.5018 20.4939C13.6329 20.495 13.7591 20.4445 13.8534 20.3534L19.6467 14.5601Z" fill="white"/>
<path d="M20 15.6215L25.4393 21.0608C25.4593 21.0808 25.4793 21.0995 25.5 21.1181V25.2501C25.5 25.9401 24.94 26.5001 24.25 26.5001H22C21.8674 26.5001 21.7402 26.4474 21.6464 26.3537C21.5527 26.2599 21.5 26.1327 21.5 26.0001V23.0001C21.5 22.8675 21.4473 22.7403 21.3536 22.6466C21.2598 22.5528 21.1326 22.5001 21 22.5001H19C18.8674 22.5001 18.7402 22.5528 18.6464 22.6466C18.5527 22.7403 18.5 22.8675 18.5 23.0001V26.0001C18.5 26.1327 18.4473 26.2599 18.3536 26.3537C18.2598 26.4474 18.1326 26.5001 18 26.5001H15.75C15.4185 26.5001 15.1005 26.3684 14.8661 26.134C14.6317 25.8996 14.5 25.5816 14.5 25.2501V21.1181C14.5207 21.0996 14.541 21.0804 14.5607 21.0608L20 15.6201V15.6215Z" fill="white"/>
</svg>
