<svg width="16" height="16" viewBox="0 0 16 16" fill="none" xmlns="http://www.w3.org/2000/svg">
<g clip-path="url(#clip0_334_7965)">
<path d="M5.33333 8H2.66667C2.29848 8 2 8.29848 2 8.66667V12.6667C2 13.0349 2.29848 13.3333 2.66667 13.3333H5.33333C5.70152 13.3333 6 13.0349 6 12.6667V8.66667C6 8.29848 5.70152 8 5.33333 8Z" stroke="#61CD81" stroke-width="1.5" stroke-linecap="round" stroke-linejoin="round"/>
<path d="M9.33333 5.33325H6.66667C6.29848 5.33325 6 5.63173 6 5.99992V12.6666C6 13.0348 6.29848 13.3333 6.66667 13.3333H9.33333C9.70152 13.3333 10 13.0348 10 12.6666V5.99992C10 5.63173 9.70152 5.33325 9.33333 5.33325Z" stroke="#61CD81" stroke-width="1.5" stroke-linecap="round" stroke-linejoin="round"/>
<path d="M13.3333 2.66675H10.6667C10.2985 2.66675 10 2.96522 10 3.33341V12.6667C10 13.0349 10.2985 13.3334 10.6667 13.3334H13.3333C13.7015 13.3334 14 13.0349 14 12.6667V3.33341C14 2.96522 13.7015 2.66675 13.3333 2.66675Z" stroke="#61CD81" stroke-width="1.5" stroke-linecap="round" stroke-linejoin="round"/>
<path d="M2.66602 13.3333H11.9993" stroke="#61CD81" stroke-width="1.5" stroke-linecap="round" stroke-linejoin="round"/>
</g>
<defs>
<clipPath id="clip0_334_7965">
<rect width="16" height="16" fill="white"/>
</clipPath>
</defs>
</svg>
