<svg width="40" height="42" viewBox="0 0 40 42" fill="none" xmlns="http://www.w3.org/2000/svg">
<path d="M7.59942 20.0007C7.12882 20.7629 6.33196 21.2047 5.2204 21.3086V21.9784L4.32537 22.0708V21.3259C3.11854 21.2624 2.26682 20.8005 1.7991 19.9459C0.173624 16.9807 4.20989 10.1988 4.38023 9.91294L4.78443 9.24023L5.15688 9.93027C6.89207 13.1437 9.0228 17.6881 7.59942 20.0007Z" fill="#24BC48"/>
<path d="M13.0827 21.2673C12.7969 21.7292 12.3234 22.0064 11.668 22.0815V23.4529L11.1339 23.5077V22.7628C11.0732 22.76 11.0126 22.7571 10.952 22.7484V22.0959C10.2389 22.0411 9.7336 21.7523 9.44777 21.2326C8.46613 19.4368 10.7383 15.5594 10.9982 15.1205L11.3244 14.5835L11.6218 15.1378C12.667 17.0838 13.9604 19.8381 13.0827 21.2673Z" fill="#239942"/>
<path d="M39.2565 24.2774C39.2392 24.4304 39.2161 24.5863 39.193 24.7393C39.1064 25.311 38.9938 25.8798 38.8523 26.4341C38.8119 26.6016 38.7686 26.7661 38.7195 26.9278C38.6849 27.0722 38.6416 27.2108 38.5983 27.3551C38.3846 28.0711 38.1277 28.7698 37.8361 29.4512L36.866 29.4339L34.7988 29.3935L32.4659 29.3501L24.8178 29.2058L22.4821 29.1596L20.8913 29.1307L18.1687 27.4013L17.3631 26.8845L16.9503 26.6218L14.9004 25.2619L15.1689 24.9212L18.3823 20.8907L20.1724 18.3847L23.0393 15.8786L24.8294 15.1626L25.5454 15.5206L27.6934 18.0267L28.7675 19.8167L29.4835 20.8907L30.5575 19.4587L31.9895 18.0267L33.0636 17.6687L34.1376 18.0267L35.5696 20.1747L37.3597 21.9648L38.4568 23.3044L39.2565 24.2774Z" fill="#0B6C96"/>
<path d="M19.244 26.6693L12.7046 39.1419L12.2859 39.9416C11.9279 39.7944 11.5757 39.6414 11.2321 39.471C11.0329 39.3786 10.8308 39.2776 10.6374 39.1736C10.5507 39.1274 10.4641 39.0841 10.3833 39.0379C5.20082 36.2345 1.40996 31.1733 0.338824 25.1824L0.203125 24.2932C0.471632 24.2239 0.766124 24.1546 1.07794 24.0853C2.01338 23.8803 3.11339 23.684 4.33178 23.5541V22.9016L5.2268 22.8842V23.4674C6.99663 23.3317 8.95991 23.352 10.9549 23.6869V22.763L11.671 22.7485V23.8226C12.7392 24.042 13.8104 24.3538 14.8584 24.7869C15.0518 24.4866 15.3406 24.0391 15.7101 23.4934L16.3857 24.0997C16.123 24.4837 15.8891 24.8417 15.6841 25.1564C16.4521 25.5231 17.2028 25.9591 17.9303 26.4701C18.1353 26.3257 18.3432 26.1843 18.554 26.0486L19.244 26.6693Z" fill="#239942"/>
<path d="M38.7202 26.926C38.6856 27.0704 38.6423 27.209 38.599 27.3533C38.2236 28.615 37.7213 29.8218 37.1092 30.9594C37.0312 31.1124 36.9475 31.2625 36.858 31.4156C36.7974 31.531 36.7281 31.6408 36.6617 31.7534C36.0178 32.8418 35.2643 33.8639 34.427 34.8022C34.2307 35.0245 34.0257 35.2439 33.8178 35.4547C30.3965 38.9626 25.6789 41.2002 20.4502 41.385C20.2106 41.3965 19.9709 41.3994 19.7313 41.3994C19.6736 41.3994 19.6129 41.3994 19.5552 41.3965C18.2704 41.3907 17.0116 41.2521 15.7932 41.0067C15.6055 40.9663 15.4208 40.9288 15.2389 40.8855C15.1292 40.8595 15.0166 40.8306 14.9068 40.8017C13.6278 40.4784 12.395 40.0309 11.2315 39.4679C11.0323 39.3755 10.8302 39.2744 10.6367 39.1705L10.8042 38.2437L11.2228 35.9369L13.0129 32.7119L14.0869 30.9219L16.9538 27.6969L17.5948 27.3302L18.4407 26.8481L19.4628 26.2648L21.6108 24.8328L24.8358 24.1168L27.3419 23.7588L31.9989 24.1168L35.5819 25.1908L37.7299 26.2648L37.9378 26.4034L38.7202 26.926Z" fill="#24BC48"/>
<path d="M36.8574 31.4149C36.7968 31.5304 36.7275 31.6401 36.6611 31.7527C36.0172 32.8412 35.2637 33.8633 34.4264 34.8016C34.2301 35.0239 34.0251 35.2433 33.8172 35.4541C30.3959 38.962 25.6783 41.1996 20.4496 41.3843C20.21 41.3959 19.9704 41.3988 19.7307 41.3988C19.673 41.3988 19.6123 41.3988 19.5546 41.3959C18.2698 41.3901 17.011 41.2515 15.7926 41.0061C15.605 40.9657 15.4202 40.9282 15.2383 40.8849L15.5212 40.2352L15.5645 40.0389L16.2372 37.0132L17.6693 33.4302L20.5362 30.9241L22.3263 29.8501L25.1932 28.7761L28.4182 28.0601L30.9243 28.4181L33.7912 29.1341L35.5813 30.5661L36.1154 30.9212L36.8574 31.4149Z" fill="#239942"/>
<path d="M20.1758 40.95L20.5338 38.4439L22.3267 35.577L25.1908 33.4289L28.7738 32.7129L31.6378 33.7869L33.0728 34.5029L33.7888 34.8609L31.6378 37.0119L28.0578 39.1599L24.1168 40.592L21.2498 40.95H20.1758Z" fill="#24BC48"/>
<path d="M32.5856 6.78598C32.5827 6.7831 32.5798 6.78021 32.5798 6.77443C32.3142 6.54923 32.0428 6.32692 31.7657 6.11327H31.7628C31.7512 6.10172 31.7224 6.07862 31.679 6.04398C31.6386 6.01511 31.6011 5.98624 31.5607 5.95448C31.4741 5.90828 31.3846 5.86786 31.2922 5.83033C30.963 5.69463 30.605 5.60802 30.2326 5.58781C30.1633 5.58492 30.0969 5.58203 30.0276 5.58203C29.8399 5.58203 29.6609 5.59647 29.4819 5.62823C30.0449 5.96891 30.5819 6.33847 31.1016 6.73113C31.4192 6.88992 31.6964 7.11512 31.9187 7.3894C32.0226 7.4789 32.1237 7.56552 32.2218 7.65791C32.6087 7.99859 32.9783 8.3566 33.3363 8.72905C36.5526 12.107 38.5332 16.6774 38.5332 21.6982C38.5332 22.0216 38.5274 22.3421 38.5072 22.6654V22.6683C38.4957 22.882 38.4812 23.0956 38.4639 23.3064C38.4466 23.4998 38.4292 23.6932 38.4061 23.8838C38.3224 24.5709 38.2098 25.2437 38.0539 25.9077C38.0193 26.0752 37.976 26.2397 37.9327 26.4043C37.898 26.5429 37.8576 26.6844 37.8172 26.8201C37.566 27.718 37.2426 28.5928 36.8615 29.43C36.7172 29.7592 36.5613 30.0826 36.3909 30.3973C36.2985 30.5734 36.2032 30.7495 36.108 30.9169C36.0589 31.0064 36.0069 31.0959 35.9549 31.1854C35.3169 32.2739 34.5749 33.2931 33.7376 34.2256C33.5413 34.448 33.3334 34.6674 33.1226 34.881C29.8746 38.1811 25.4226 40.2887 20.4826 40.4821C20.2314 40.4966 19.9802 40.4995 19.7262 40.4995C19.68 40.4995 19.6338 40.4995 19.5876 40.4966C18.3057 40.4908 17.0555 40.3522 15.8458 40.0953C15.7534 40.0779 15.6553 40.0548 15.5629 40.0346C15.3637 39.9884 15.1644 39.9422 14.9681 39.8874C14.1915 39.6824 13.435 39.4312 12.7017 39.1338C12.2455 38.9519 11.7951 38.7469 11.3591 38.5275C11.1715 38.4351 10.9867 38.337 10.8048 38.2388C10.7095 38.1897 10.6143 38.1378 10.5219 38.0858C5.70896 35.3718 2.20105 30.5965 1.21363 24.9665C1.15878 24.672 1.11836 24.3804 1.07794 24.083C0.766124 24.1523 0.471632 24.2216 0.203125 24.2909L0.338824 25.1801C1.40996 31.1681 5.20082 36.2293 10.3833 39.0357C10.467 39.0819 10.5507 39.1252 10.6374 39.1714C10.8308 39.2753 11.03 39.3763 11.2321 39.4687C11.5757 39.6362 11.9279 39.7921 12.2859 39.9393C13.1319 40.2858 14.0096 40.5774 14.9075 40.8026C15.0172 40.8315 15.1298 40.8604 15.2395 40.8863C15.4214 40.9296 15.6091 40.9701 15.7938 41.0076C17.0122 41.2559 18.2681 41.3916 19.5558 41.3974C19.6136 41.4003 19.6742 41.4003 19.7319 41.4003C19.9716 41.4003 20.2112 41.3974 20.4508 41.3858C25.6795 41.1982 30.3971 38.9606 33.8184 35.4556C34.0263 35.2448 34.2313 35.0254 34.4276 34.8031C35.2649 33.8647 36.0185 32.8427 36.6623 31.7542C36.7316 31.6445 36.798 31.5319 36.8586 31.4164C36.9481 31.2663 37.0319 31.1162 37.1098 30.9602C37.3754 30.4694 37.618 29.9642 37.8374 29.4474C38.1319 28.766 38.3859 28.0673 38.5996 27.3513C38.6429 27.2069 38.6862 27.0683 38.7209 26.924C38.7699 26.7623 38.8132 26.5977 38.8537 26.4303C38.9922 25.8759 39.1077 25.3101 39.1943 24.7355C39.2203 24.5825 39.2405 24.4266 39.2579 24.2736C39.2925 24.0397 39.3185 23.8087 39.3416 23.572C39.4022 22.9512 39.4311 22.3305 39.4311 21.6953C39.4311 15.7449 36.7749 10.3978 32.5856 6.78598Z" fill="#131414"/>
<path d="M32.2629 8.01278C32.2571 7.89152 32.2455 7.77314 32.2224 7.65766C32.1358 7.09466 31.9049 6.58074 31.5699 6.15056C31.5526 6.12457 31.5295 6.0957 31.5093 6.0726C31.5064 6.06971 31.5035 6.06683 31.5035 6.06105C31.4342 5.9831 31.3678 5.90226 31.2928 5.83297C31.0676 5.60777 30.8106 5.41722 30.5277 5.26708C30.5248 5.2642 30.5219 5.26419 30.5219 5.26419C30.5161 5.25264 30.5017 5.24976 30.4901 5.24398C30.0311 5.00435 29.5085 4.86865 28.9571 4.86865C28.7694 4.86865 28.5904 4.88309 28.4114 4.91485C26.8436 5.1718 25.6426 6.54032 25.6426 8.18023C25.6426 10.0078 27.1295 11.4947 28.9571 11.4947C30.7846 11.4947 32.2715 10.0078 32.2715 8.18023C32.2657 8.12249 32.2657 8.06764 32.2629 8.01278ZM28.9542 10.5939C27.6203 10.5939 26.5376 9.50833 26.5376 8.17735C26.5376 6.84347 27.6232 5.76079 28.9542 5.76079C29.341 5.76079 29.7077 5.85029 30.0282 6.01486C30.3458 6.17365 30.6229 6.39885 30.8453 6.67313C31.1744 7.086 31.3707 7.60857 31.3707 8.17735C31.3707 9.50833 30.2851 10.5939 28.9542 10.5939Z" fill="#131414"/>
<path d="M18.68 27.0391C18.4259 27.2153 18.1747 27.3972 17.9264 27.5877C17.6781 27.3943 17.4241 27.2124 17.17 27.0391C13.3618 24.4667 8.8665 24.074 5.22001 24.3627C4.91685 24.3887 4.6137 24.4176 4.32498 24.4494C3.15857 24.5822 2.10186 24.7727 1.20973 24.9719C0.897914 25.0441 0.603425 25.1163 0.334918 25.1827L0.199219 24.2934C0.467725 24.2242 0.762218 24.1549 1.07403 24.0856C2.00948 23.8806 3.10949 23.6843 4.32787 23.5543C4.61659 23.5197 4.91974 23.4908 5.22289 23.4677C6.99273 23.332 8.956 23.3522 10.951 23.6871C11.081 23.7074 11.208 23.7333 11.3379 23.7593C11.4476 23.7795 11.5573 23.8026 11.6671 23.8228C12.7353 24.0423 13.8064 24.3541 14.8545 24.7872C15.1317 24.9026 15.4088 25.0239 15.6831 25.1567C16.4511 25.5234 17.2018 25.9593 17.9293 26.4704C18.1805 26.6523 18.4317 26.8399 18.68 27.0391Z" fill="#131414"/>
<path d="M39.3405 23.5748C39.3203 23.8115 39.2943 24.0454 39.2568 24.2764C39.2395 24.4294 39.2164 24.5853 39.1933 24.7383C38.9825 24.5045 38.714 24.2157 38.408 23.8837C36.9153 22.2611 34.5767 19.6829 33.6153 18.4847C33.3756 18.1845 33.1562 18.0343 32.9628 18.0343C32.7405 18.0343 32.4835 18.2162 32.2092 18.4905C31.9378 18.759 31.6491 19.1199 31.3662 19.475C31.0399 19.8821 30.7079 20.3065 30.3383 20.6703C30.2026 20.806 29.7898 21.2218 29.2672 21.1438C28.6551 21.0543 28.3173 20.4191 27.8092 19.4635C27.3068 18.5165 26.6168 17.2259 25.4099 16.0133C25.1732 15.7794 24.8989 15.6871 24.5438 15.7275C22.3264 15.9815 18.5038 20.9706 16.3818 24.0974C16.119 24.4814 15.8852 24.8394 15.6802 25.1541C15.5849 25.3042 15.4925 25.4486 15.4117 25.5814L14.9035 25.2638L14.6523 25.105C14.6957 25.0328 14.7621 24.926 14.8516 24.7874C15.045 24.4871 15.3337 24.0396 15.7033 23.494C17.6406 20.6357 21.6855 15.1529 24.4427 14.8411C25.0635 14.7689 25.6178 14.9595 26.0393 15.3868C27.3472 16.6918 28.069 18.0516 28.6003 19.0477C28.8659 19.5443 29.2297 20.2343 29.4 20.2632C29.4 20.2632 29.4895 20.2603 29.7089 20.0438C30.0381 19.7118 30.3585 19.3105 30.6646 18.9236C31.3922 18.0055 32.0793 17.1422 32.957 17.1422H32.9599C33.4363 17.1422 33.8953 17.4078 34.314 17.9304C35.131 18.9553 37.0423 21.0716 38.5061 22.6682V22.6711C38.8093 22.9974 39.0922 23.3034 39.3405 23.5748Z" fill="#131414"/>
<path d="M18.5864 24.8869L17.8242 24.4163C17.9426 24.2229 20.7691 19.6525 22.6314 18.5352L23.0933 19.3031C21.6988 20.1404 19.3689 23.6166 18.5864 24.8869Z" fill="#131414"/>
<path d="M21.3654 7.375L21.3613 8.27002L24.9443 8.2862L24.9483 7.39117L21.3654 7.375Z" fill="#131414"/>
<path d="M25.1947 9.34267L21.7852 10.4434L22.0601 11.2951L25.4697 10.1944L25.1947 9.34267Z" fill="#131414"/>
<path d="M22.2267 4.05208L21.793 4.83496L24.927 6.57127L25.3607 5.7884L22.2267 4.05208Z" fill="#131414"/>
<path d="M24.5909 1.85135L23.8965 2.41602L26.157 5.19605L26.8514 4.63138L24.5909 1.85135Z" fill="#131414"/>
<path d="M28.0721 0.611887L27.1855 0.734863L27.6778 4.2838L28.5644 4.16082L28.0721 0.611887Z" fill="#131414"/>
<path d="M30.3985 0.600235L29.5117 4.07178L30.3789 4.2933L31.2657 0.821753L30.3985 0.600235Z" fill="#131414"/>
<path d="M33.2267 1.80892L31.1152 4.70361L31.8383 5.23105L33.9498 2.33636L33.2267 1.80892Z" fill="#131414"/>
<path d="M36.3974 30.401C35.8921 30.0285 35.358 29.6907 34.8008 29.3933C32.8982 28.3684 30.7241 27.7881 28.4173 27.7881C26.2894 27.7881 24.2771 28.2818 22.487 29.1595C18.3988 31.1603 15.4654 35.1706 14.9717 39.8911C14.94 40.1914 14.9169 40.4974 14.9082 40.8006C15.0179 40.8294 15.1305 40.8583 15.2402 40.8843C15.4221 40.9276 15.6098 40.968 15.7946 41.0055C15.8003 40.7024 15.8205 40.3992 15.8494 40.099C16.3431 34.9194 19.9781 30.6464 24.8227 29.2057C25.9632 28.865 27.17 28.6831 28.4202 28.6831C29.8378 28.6831 31.2005 28.917 32.4709 29.35C33.7383 29.7802 34.9134 30.4039 35.9643 31.1863C36.204 31.3653 36.4407 31.5558 36.6659 31.7522C36.7352 31.6425 36.8016 31.5299 36.8622 31.4144C36.9517 31.2642 37.0355 31.1141 37.1134 30.9582C36.8796 30.7648 36.6399 30.58 36.3974 30.401Z" fill="#131414"/>
<path d="M33.7421 34.2315C32.2581 33.1113 30.4104 32.4473 28.4153 32.4473C23.7987 32.4473 19.9992 35.9927 19.5892 40.5025C19.5604 40.771 19.5488 41.0395 19.5488 41.3109C19.5488 41.3397 19.5488 41.3686 19.5517 41.3975C19.6095 41.4004 19.6701 41.4004 19.7278 41.4004C19.9675 41.4004 20.2071 41.3975 20.4467 41.3859C20.4438 41.36 20.4439 41.3369 20.4439 41.3109C20.4439 41.0308 20.4583 40.7565 20.4843 40.488C20.9 36.4806 24.2982 33.3423 28.4153 33.3423C30.1765 33.3423 31.8049 33.9168 33.1243 34.8869C33.3639 35.063 33.5978 35.2536 33.8143 35.4557C34.0222 35.2449 34.2272 35.0255 34.4235 34.8032C34.207 34.6011 33.976 34.4105 33.7421 34.2315Z" fill="#131414"/>
<path d="M38.0582 25.9098C35.2605 24.1515 31.9547 23.1353 28.4151 23.1353C24.783 23.1353 21.3935 24.2064 18.5496 26.0513C18.3388 26.187 18.131 26.3313 17.926 26.4728C17.7354 26.6085 17.5449 26.7471 17.363 26.8886C17.2995 26.9377 17.233 26.9896 17.1695 27.0387C13.7482 29.7382 11.3201 33.6359 10.5175 38.0937C10.4626 38.4055 10.4164 38.7202 10.3789 39.0407C10.4626 39.0869 10.5464 39.1302 10.633 39.1764C10.8264 39.2803 11.0256 39.3814 11.2277 39.4737C11.2595 39.1619 11.3028 38.8472 11.3577 38.5383C12.0737 34.0921 14.496 30.2146 17.926 27.5873C18.0097 27.5266 18.0876 27.466 18.1685 27.4054C18.3359 27.2812 18.5063 27.1571 18.6766 27.0387C18.8643 26.9146 19.0491 26.7875 19.2396 26.6691C21.9016 24.9975 25.0457 24.0303 28.4122 24.0303C31.8797 24.0303 35.1104 25.0552 37.8186 26.8251C38.0842 26.9925 38.3411 27.1715 38.5952 27.3592C38.6385 27.2148 38.6818 27.0762 38.7165 26.9319C38.7656 26.7702 38.8089 26.6056 38.8493 26.4382C38.5894 26.2534 38.3296 26.0773 38.0582 25.9098Z" fill="#131414"/>
<path d="M5.22315 18.0259V24.3574C4.91999 24.3834 4.61684 24.4123 4.32812 24.4441V18.0259H5.22315Z" fill="#131414"/>
<path d="M5.16199 9.93515L4.78955 9.24512L4.38534 9.91783C4.21211 10.2037 0.175849 16.9856 1.80421 19.9507C2.26905 20.8025 3.12365 21.2644 4.33049 21.3308C4.37957 21.3337 4.43154 21.3366 4.48351 21.3366C4.54414 21.3395 4.60188 21.3395 4.65962 21.3395C4.85595 21.3395 5.0465 21.3337 5.22551 21.3106C6.33707 21.2067 7.13393 20.7649 7.60454 20.0027C9.02214 17.6901 6.89141 13.1457 5.16199 9.93515ZM6.83655 19.5321C6.52762 20.0287 5.99927 20.3232 5.21973 20.4098C5.00031 20.4358 4.76067 20.4444 4.50083 20.4387C4.4402 20.4387 4.38246 20.4358 4.32471 20.4329C3.46145 20.3752 2.89268 20.0778 2.58664 19.5206C1.56169 17.6554 3.53363 13.2958 4.74912 11.0756C6.96358 15.3428 7.66517 18.1867 6.83655 19.5321Z" fill="#131414"/>
<path d="M11.6652 20.0332H10.9492V24.1157H11.6652V20.0332Z" fill="#131414"/>
<path d="M11.6181 15.1383L11.3207 14.584L10.9945 15.121C10.7318 15.557 8.46244 19.4373 9.44408 21.2331C9.72991 21.7528 10.2352 22.0415 10.9483 22.0964C11.006 22.1079 11.0667 22.1108 11.1273 22.1108H11.2341C11.3843 22.1108 11.5286 22.1051 11.6643 22.082C12.3197 22.0069 12.7932 21.7297 13.079 21.2678C13.9596 19.8386 12.6662 17.0843 11.6181 15.1383ZM12.4669 20.8924C12.3082 21.1436 12.0483 21.3053 11.6643 21.3659C11.5113 21.3919 11.3381 21.4006 11.1446 21.3948C11.0753 21.3919 11.0089 21.389 10.9483 21.3833C10.5181 21.3371 10.2323 21.1725 10.0735 20.8896C9.49605 19.8444 10.5643 17.4105 11.2919 16.0564C12.5449 18.5019 12.9404 20.1245 12.4669 20.8924Z" fill="#131414"/>
<path d="M31.7641 6.11354C31.7641 6.11354 30.872 5.4033 30.5371 5.2676C30.2051 5.1319 30.2051 5.84792 30.2051 5.84792L31.2791 6.20593L31.7641 6.11354Z" fill="#131414"/>
<path d="M28.9526 10.8633C30.4356 10.8633 31.6377 9.66115 31.6377 8.17823C31.6377 6.69531 30.4356 5.49316 28.9526 5.49316C27.4697 5.49316 26.2676 6.69531 26.2676 8.17823C26.2676 9.66115 27.4697 10.8633 28.9526 10.8633Z" fill="#E07103"/>
</svg>
