<svg width="200" height="200" viewBox="0 0 200 200" fill="none" xmlns="http://www.w3.org/2000/svg">
<path d="M4.46049 107.642C0.650498 103.832 0.650499 97.655 4.46049 93.845L54.4754 43.8301C58.2854 40.0202 64.4626 40.0202 68.2726 43.8302L118.287 93.845C122.097 97.655 122.097 103.832 118.287 107.642L68.2726 157.657C64.4626 161.467 58.2853 161.467 54.4754 157.657L4.46049 107.642Z" fill="#F4663E"/>
<path d="M86.2325 143.145C84.3275 145.05 84.3275 148.139 86.2325 150.044L93.8458 157.657C97.6558 161.467 103.833 161.467 107.643 157.657L157.658 107.642C161.468 103.832 161.468 97.655 157.658 93.845L107.643 43.8302C103.833 40.0202 97.6558 40.0202 93.8458 43.8302L86.2325 51.4434C84.3275 53.3484 84.3275 56.437 86.2325 58.342L121.735 93.845C125.545 97.655 125.545 103.832 121.735 107.642L86.2325 143.145Z" fill="#FA9B51"/>
<path d="M125.603 143.146C123.698 145.051 123.698 148.139 125.603 150.044L133.216 157.657C137.026 161.467 143.203 161.467 147.013 157.657L197.028 107.642C200.838 103.832 200.838 97.655 197.028 93.845L147.013 43.8302C143.203 40.0202 137.026 40.0202 133.216 43.8302L125.603 51.4428C123.698 53.3478 123.698 56.4364 125.603 58.3414L161.107 93.845C164.917 97.655 164.917 103.832 161.107 107.642L125.603 143.146Z" fill="#FFDA99"/>
</svg>
